<svg width="113" height="73" viewBox="0 0 113 73" fill="none" xmlns="http://www.w3.org/2000/svg">
<path d="M16.8968 55.1664C18.4407 55.1664 20.0076 54.8438 20.9523 54.2447V50.8113C19.8232 51.5718 18.5328 51.9404 17.1503 51.9404C14.1317 51.9404 12.2883 50.1662 12.2883 47.2858C12.2883 44.4055 14.1317 42.6312 17.1503 42.6312C18.5328 42.6312 19.8232 42.9999 20.9523 43.7603V40.3269C20.0076 39.7278 18.4407 39.4052 16.8968 39.4052C12.0118 39.4052 8.73971 42.6543 8.73971 47.2858C8.73971 51.9174 12.0118 55.1664 16.8968 55.1664ZM25.9403 55.1664C27.3229 55.1664 28.4059 54.6595 29.0972 53.7608L29.5119 54.8899H31.8623V48.8066C31.8623 45.9724 30.2954 44.5668 27.1846 44.5668C25.6408 44.5668 24.3273 44.9124 23.3595 45.5576V48.2997C24.2582 47.5854 25.2951 47.2167 26.6086 47.2167C28.1294 47.2167 28.6363 47.7236 28.6363 49.0371V49.1984C27.8298 48.8988 27.0464 48.7375 26.2399 48.7375C23.9356 48.7375 22.53 49.9818 22.53 52.0326C22.53 53.9682 23.7974 55.1664 25.9403 55.1664ZM26.839 52.793C26.0325 52.793 25.6408 52.4013 25.6408 51.8022C25.6408 51.18 26.0555 50.7883 26.9772 50.7883C27.5533 50.7883 28.1294 50.9496 28.6363 51.2261V51.9404C28.1985 52.5165 27.5533 52.793 26.839 52.793ZM34.2486 54.8899H37.4746V48.7375C37.8433 47.9541 38.3733 47.5623 39.0645 47.5623C39.871 47.5623 40.3088 48.0693 40.3088 49.0601V54.8899H43.5348V48.6914C43.9035 47.9541 44.4335 47.5623 45.1247 47.5623C45.9543 47.5623 46.369 48.0693 46.369 49.0601V54.8899H49.595V48.5532C49.595 45.9263 48.4198 44.5668 46.2078 44.5668C44.8482 44.5668 43.8344 45.0507 43.0509 46.1798C42.5209 45.1198 41.5301 44.5668 40.1245 44.5668C38.788 44.5668 37.7511 45.0737 36.9446 46.2259L36.599 44.8433H34.2486V54.8899ZM52.0482 60.1206H55.2741V53.9912C55.9424 54.7516 56.8641 55.1664 58.0623 55.1664C60.7583 55.1664 62.6939 53.0926 62.6939 49.8666C62.6939 46.6637 60.8044 44.5668 57.9932 44.5668C56.5876 44.5668 55.5276 45.0968 54.7441 46.1798L54.3985 44.8433H52.0482V60.1206ZM57.2558 52.263C56.3802 52.263 55.6889 51.8713 55.2741 51.2261V48.484C55.6889 47.8388 56.3802 47.4702 57.2328 47.4702C58.5923 47.4702 59.4218 48.3688 59.4218 49.8666C59.4218 51.3413 58.5923 52.263 57.2558 52.263ZM67.39 55.1664C68.7726 55.1664 69.8556 54.6595 70.5469 53.7608L70.9617 54.8899H73.312V48.8066C73.312 45.9724 71.7451 44.5668 68.6344 44.5668C67.0905 44.5668 65.7771 44.9124 64.8093 45.5576V48.2997C65.7079 47.5854 66.7449 47.2167 68.0583 47.2167C69.5791 47.2167 70.086 47.7236 70.086 49.0371V49.1984C69.2795 48.8988 68.4961 48.7375 67.6896 48.7375C65.3853 48.7375 63.9797 49.9818 63.9797 52.0326C63.9797 53.9682 65.2471 55.1664 67.39 55.1664ZM68.2887 52.793C67.4822 52.793 67.0905 52.4013 67.0905 51.8022C67.0905 51.18 67.5053 50.7883 68.427 50.7883C69.003 50.7883 69.5791 50.9496 70.086 51.2261V51.9404C69.6482 52.5165 69.003 52.793 68.2887 52.793ZM77.3113 43.046C78.4174 43.046 79.2008 42.2856 79.2008 41.2256C79.2008 40.1426 78.4174 39.3822 77.3113 39.3822C76.2053 39.3822 75.4218 40.1426 75.4218 41.2256C75.4218 42.2856 76.2053 43.046 77.3113 43.046ZM75.6984 54.8899H78.9243V44.8433H75.6984V54.8899ZM85.7439 60.3971C89.7072 60.3971 91.758 59.0145 91.758 56.3416C91.758 54.1756 90.3985 53.0234 87.7486 53.0234H85.4443C84.5226 53.0234 84.2 52.8391 84.2 52.3782C84.2 52.1017 84.3152 51.9174 84.5456 51.7331C84.9835 51.8022 85.4443 51.8483 85.9512 51.8483C88.9929 51.8483 90.675 50.5809 90.675 48.2075C90.675 47.6775 90.5828 47.1937 90.4215 46.7789C90.7211 46.6637 91.0667 46.6176 91.4584 46.6176C91.8502 46.6176 92.1267 46.6637 92.3571 46.7098V43.5299C92.0806 43.4838 91.8271 43.4838 91.5736 43.4838C90.3985 43.4838 89.5229 43.9907 88.9237 45.1659C88.1633 44.7742 87.1725 44.5668 85.9512 44.5668C82.9096 44.5668 81.2736 45.8341 81.2736 48.2075C81.2736 49.4979 81.7575 50.4427 82.6792 51.0418V51.0879C81.7805 51.6178 81.3658 52.2861 81.3658 53.2308C81.3658 54.0834 81.7344 54.6825 82.4718 55.0512V55.0973C81.4349 55.5812 80.8819 56.3646 80.8819 57.5168C80.8819 59.4523 82.4718 60.3971 85.7439 60.3971ZM85.9512 49.4518C84.8452 49.4518 84.3152 49.0601 84.3152 48.2075C84.3152 47.3319 84.8682 46.9632 85.9512 46.9632C87.0112 46.9632 87.5642 47.3319 87.5642 48.2075C87.5642 49.0601 87.0342 49.4518 85.9512 49.4518ZM86.0204 57.9776C84.5456 57.9776 83.8544 57.655 83.8544 56.8485C83.8544 56.2955 84.1539 55.9729 84.73 55.7425H86.8038C88.002 55.7425 88.4859 56.019 88.4859 56.6872C88.4859 57.5628 87.7025 57.9776 86.0204 57.9776ZM93.8579 54.8899H97.0839V48.8066C97.4526 48.0001 98.0056 47.5623 98.766 47.5623C99.6186 47.5623 100.033 48.0693 100.033 49.0831V54.8899H103.259V48.5762C103.259 45.9494 102.038 44.5668 99.7799 44.5668C98.4204 44.5668 97.3604 45.0737 96.577 46.2489L96.2083 44.8433H93.8579V54.8899Z" fill="#2134B8"/>
<path d="M55.0948 24L56.3384 27.8274L60.3627 27.8274L57.107 30.1929L58.3506 34.0203L55.0948 31.6548L51.839 34.0203L53.0826 30.1929L49.8268 27.8274L53.8512 27.8274L55.0948 24Z" fill="#FF751A"/>
<path d="M69.1272 26.2156L69.8733 28.512H72.288L70.3345 29.9313L71.0806 32.2278L69.1272 30.8085L67.1737 32.2278L67.9199 29.9313L65.9664 28.512H68.381L69.1272 26.2156Z" fill="#2134B8"/>
<path d="M40.3235 26.9541L41.0696 29.2506H43.4843L41.5308 30.6698L42.2769 32.9663L40.3235 31.547L38.37 32.9663L39.1161 30.6698L37.1627 29.2506H39.5773L40.3235 26.9541Z" fill="#2134B8"/>
<path d="M68.248 67.3094C68.736 67.1174 69.072 66.6854 69.072 66.0854C69.072 65.2534 68.472 64.6294 67 64.6294H65.04C64.952 64.6294 64.896 64.6854 64.896 64.7734V70.1094C64.896 70.1974 64.952 70.2534 65.04 70.2534H67.136C68.608 70.2534 69.272 69.6454 69.272 68.6454C69.272 68.0214 68.904 67.4934 68.248 67.3094ZM68 66.2774C68 66.7174 67.696 66.9734 67.064 66.9734H65.976V65.5494H66.984C67.704 65.5494 68 65.8294 68 66.2774ZM67.128 69.3334H65.976V67.8534H67.128C67.864 67.8534 68.184 68.1494 68.184 68.5734C68.184 69.0454 67.832 69.3334 67.128 69.3334ZM73.607 66.5734H72.839C72.759 66.5734 72.695 66.6134 72.663 66.6934L71.783 69.0534L70.879 66.6934C70.855 66.6134 70.791 66.5734 70.711 66.5734H69.855C69.743 66.5734 69.695 66.6454 69.743 66.7414L71.231 70.2454L70.679 71.6454C70.639 71.7494 70.687 71.8134 70.799 71.8134H71.519C71.599 71.8134 71.663 71.7734 71.695 71.6934L72.351 70.1014L73.727 66.7414C73.759 66.6454 73.719 66.5734 73.607 66.5734ZM81.0206 67.4534H80.2846C80.1886 67.4534 80.1326 67.5014 80.1326 67.5974V69.1174C79.8686 69.2454 79.5166 69.3334 79.0926 69.3334C78.0286 69.3334 77.1646 68.5654 77.1646 67.4454C77.1646 66.3254 77.9886 65.5894 79.1006 65.5894C79.7166 65.5894 80.1486 65.7734 80.3726 65.8934C80.4526 65.9334 80.5246 65.9174 80.5726 65.8374L80.9086 65.2214C80.9566 65.1414 80.9406 65.0694 80.8606 65.0214C80.5886 64.8454 80.0126 64.5574 79.0526 64.5574C77.2766 64.5574 76.0206 65.8214 76.0206 67.4454C76.0206 69.0694 77.2766 70.3254 79.0286 70.3254C80.1646 70.3254 80.8126 69.9334 81.0846 69.7334C81.1486 69.6934 81.1726 69.6294 81.1726 69.5494V67.5974C81.1726 67.5014 81.1166 67.4534 81.0206 67.4534ZM85.631 68.4214C85.631 67.3174 84.911 66.5014 83.799 66.5014C82.671 66.5014 81.879 67.3414 81.879 68.4134C81.879 69.4934 82.735 70.3254 83.903 70.3254C84.623 70.3254 85.071 70.1014 85.319 69.9094C85.391 69.8534 85.399 69.7814 85.351 69.7014L85.071 69.2054C85.023 69.1174 84.951 69.1094 84.871 69.1654C84.695 69.2934 84.431 69.4454 84.015 69.4454C83.455 69.4454 83.047 69.1334 82.927 68.7014H85.479C85.567 68.7014 85.615 68.6454 85.623 68.5574C85.631 68.5094 85.631 68.4694 85.631 68.4214ZM83.839 67.3334C84.255 67.3334 84.567 67.6134 84.631 68.0054L84.639 68.0294H82.927C83.039 67.5814 83.375 67.3334 83.839 67.3334ZM89.9591 68.4214C89.9591 67.3174 89.2391 66.5014 88.1271 66.5014C86.9991 66.5014 86.2071 67.3414 86.2071 68.4134C86.2071 69.4934 87.0631 70.3254 88.2311 70.3254C88.9511 70.3254 89.3991 70.1014 89.6471 69.9094C89.7191 69.8534 89.7271 69.7814 89.6791 69.7014L89.3991 69.2054C89.3511 69.1174 89.2791 69.1094 89.1991 69.1654C89.0231 69.2934 88.7591 69.4454 88.3431 69.4454C87.7831 69.4454 87.3751 69.1334 87.2551 68.7014H89.8071C89.8951 68.7014 89.9431 68.6454 89.9511 68.5574C89.9591 68.5094 89.9591 68.4694 89.9591 68.4214ZM88.1671 67.3334C88.5831 67.3334 88.8951 67.6134 88.9591 68.0054L88.9671 68.0294H87.2551C87.3671 67.5814 87.7031 67.3334 88.1671 67.3334ZM92.8793 66.5014C92.2073 66.5014 91.7433 66.8134 91.5273 67.1974L91.4953 66.7174C91.4873 66.6294 91.4313 66.5734 91.3433 66.5734H90.8873C90.7913 66.5734 90.7353 66.6294 90.7353 66.7174V70.1094C90.7353 70.1974 90.7913 70.2534 90.8873 70.2534H91.6393C91.7273 70.2534 91.7833 70.1974 91.7833 70.1094V68.3334C91.7833 67.8454 92.1113 67.4454 92.6393 67.4454C93.1193 67.4454 93.4473 67.8054 93.4473 68.3654V70.1094C93.4473 70.1974 93.5033 70.2534 93.5993 70.2534H94.3513C94.4393 70.2534 94.4953 70.1974 94.4953 70.1094V68.2214C94.4953 67.1734 93.8633 66.5014 92.8793 66.5014ZM99.0384 66.5734H98.3584C98.2704 66.5734 98.2144 66.6214 98.2064 66.7094L98.1824 66.9334C97.9024 66.6774 97.5184 66.5014 97.0304 66.5014C96.0144 66.5014 95.2384 67.3254 95.2384 68.4134C95.2384 69.5014 95.9904 70.3254 97.0064 70.3254C97.5504 70.3254 97.9504 70.0854 98.2224 69.7574L98.2464 70.1094C98.2544 70.2054 98.3104 70.2534 98.4064 70.2534H99.0384C99.1344 70.2534 99.1904 70.1974 99.1904 70.1094V66.7174C99.1904 66.6294 99.1344 66.5734 99.0384 66.5734ZM97.2384 69.3734C96.7024 69.3734 96.2944 68.9574 96.2944 68.4134C96.2944 67.8614 96.7024 67.4534 97.2384 67.4534C97.8144 67.4534 98.1824 67.8534 98.1824 68.4134C98.1904 68.9654 97.8144 69.3734 97.2384 69.3734Z" fill="#5F5E5E"/>
<path d="M102.01 64.4074H100.519C100.487 64.4074 100.471 64.4258 100.471 64.4546V64.6779C100.471 64.7094 100.487 64.7277 100.519 64.7277H101.086V66.2062C101.086 66.235 101.101 66.2534 101.133 66.2534H101.398C101.43 66.2534 101.448 66.235 101.448 66.2062V64.7277H102.01C102.042 64.7277 102.06 64.7094 102.06 64.6779V64.4546C102.06 64.4258 102.042 64.4074 102.01 64.4074ZM104.213 64.4573C104.213 64.4258 104.192 64.4074 104.158 64.4074H104.021C103.995 64.4074 103.977 64.4179 103.964 64.4415L103.27 65.6206L102.59 64.4415C102.577 64.4179 102.559 64.4074 102.533 64.4074H102.393C102.357 64.4074 102.341 64.4258 102.341 64.4546L102.288 66.2062C102.288 66.2377 102.301 66.2534 102.336 66.2534H102.593C102.624 66.2534 102.643 66.235 102.643 66.2062L102.659 65.1453L103.137 66.004C103.15 66.0276 103.168 66.0381 103.194 66.0381H103.344C103.37 66.0381 103.391 66.0276 103.402 66.004L103.893 65.1453L103.909 66.2062C103.909 66.235 103.924 66.2534 103.958 66.2534H104.213C104.245 66.2534 104.263 66.2403 104.263 66.2062L104.213 64.4573Z" fill="#5F5E5E"/>
<path d="M10.4442 24.2276C10.6922 23.4071 10.5077 22.4785 9.78094 21.8556C8.70094 20.9299 7.26479 21.0121 5.70752 22.8289L3.72632 25.1403C3.63981 25.2413 3.64846 25.3537 3.75949 25.4489L10.512 31.2367C10.623 31.3319 10.7355 31.3233 10.822 31.2223L12.9849 28.699C14.4556 26.9831 14.4326 25.4575 13.1709 24.3761C12.424 23.7359 11.3714 23.6566 10.4442 24.2276ZM9.05133 23.0337C9.69731 23.5874 9.67568 24.4093 8.9403 25.2672L7.5301 26.9124L5.34992 25.0437L6.57844 23.6104C7.50415 22.5304 8.36497 22.4454 9.05133 23.0337ZM12.0794 27.9578L10.6692 29.6031L8.39814 27.6565L9.84294 25.9709C10.76 24.901 11.6338 24.862 12.2192 25.3638C12.9661 26.004 12.9359 26.9586 12.0794 27.9578Z" fill="#2134B8"/>
<path d="M17.7826 16.5566L17.203 17.0446C17.1013 17.1302 17.0916 17.2426 17.167 17.3529L17.5218 17.8362C16.8234 17.7291 16.0072 17.8948 15.2546 18.5284C13.9732 19.6071 13.8599 21.4749 15.0328 22.8682C16.2057 24.2615 18.0553 24.4769 19.3367 23.3982C20.13 22.7304 20.3897 21.9036 20.3433 21.126L20.8618 21.68C20.9474 21.7817 21.07 21.7828 21.1615 21.7057L21.7208 21.2348C21.8327 21.1407 21.8424 21.0283 21.7482 20.9164L18.1011 16.584C18.0069 16.4721 17.8945 16.4624 17.7826 16.5566ZM18.7611 22.3015C17.9576 22.9778 16.7776 22.8765 16.0498 22.012C15.3221 21.1476 15.4235 19.9675 16.2269 19.2912C17.1015 18.5549 18.2206 18.7076 18.9585 19.5635C19.6862 20.428 19.6357 21.5652 18.7611 22.3015Z" fill="#2134B8"/>
<path d="M26.7621 18.9421C27.6587 18.4213 28.0158 17.8449 28.1915 17.5122C28.2549 17.3832 28.2311 17.2893 28.1069 17.2078L27.476 16.8363C27.3766 16.771 27.2828 16.7948 27.2079 16.9305C27.0188 17.2402 26.7522 17.5488 26.2349 17.8493C25.1889 18.4569 24.0325 18.16 23.4716 17.1944C22.8974 16.2058 23.2125 15.0542 24.3045 14.4199C24.7643 14.1528 25.1874 14.0608 25.5453 14.0682C25.6822 14.0656 25.7789 13.994 25.7763 13.8571L25.7747 13.1662C25.7769 13.0112 25.7005 12.9326 25.5503 12.9122C25.0604 12.8893 24.4096 12.9599 23.5704 13.4473C21.9496 14.3888 21.391 16.3121 22.2991 17.8754C23.1938 19.4158 25.0608 19.9303 26.7621 18.9421Z" fill="#2134B8"/>
<path d="M35.3763 15.0598L31.4953 13.4495L33.0576 9.97619C33.13 9.80271 33.0426 9.6949 32.8582 9.77069L31.7761 10.2153C31.6777 10.2557 31.6068 10.328 31.5756 10.427L30.1444 13.6596L27.9719 8.37214C27.9163 8.23689 27.8122 8.19342 27.6769 8.249L26.8654 8.58245C26.7424 8.63297 26.6867 8.74212 26.7422 8.87738L30.1778 17.2389C30.2334 17.3741 30.3498 17.4126 30.4727 17.362L31.2843 17.0286C31.4196 16.973 31.463 16.8689 31.4074 16.7337L30.4627 14.4342L33.9245 15.8288C34.0286 15.8723 34.1247 15.8615 34.2231 15.8211L35.379 15.3462C35.5511 15.2754 35.5671 15.1395 35.3763 15.0598Z" fill="#2134B8"/>
<path d="M41.3361 4.52051L34.3005 6.35866C34.1719 6.39226 34.102 6.49296 34.139 6.63444L34.3339 7.38044C34.3675 7.50906 34.481 7.57558 34.6097 7.54197L37.4779 6.7926L39.474 14.4327C39.511 14.5742 39.6083 14.6312 39.7498 14.5942L40.6501 14.359C40.7787 14.3254 40.8486 14.2247 40.8117 14.0832L38.8156 6.44312L41.6452 5.70383C41.7739 5.67022 41.8275 5.56002 41.7939 5.4314L41.599 4.6854C41.562 4.54392 41.4647 4.48691 41.3361 4.52051Z" fill="#2134B8"/>
<path d="M48.16 13.5648C49.9268 13.338 51.2046 11.8068 50.9744 10.0136C50.7425 8.20717 49.1194 7.04845 47.3525 7.27528C45.5724 7.50381 44.2947 9.03495 44.5266 10.8414C44.7568 12.6346 46.3799 13.7933 48.16 13.5648ZM48.0059 12.3649C46.9511 12.5004 45.9972 11.7516 45.8584 10.6704C45.7162 9.56281 46.45 8.59741 47.5049 8.46199C48.5465 8.32825 49.5004 9.07698 49.6426 10.1846C49.7814 11.2658 49.0476 12.2312 48.0059 12.3649Z" fill="#2134B8"/>
<path d="M59.1445 8.33628C59.9212 7.97387 60.49 7.21702 60.4694 6.26008C60.4389 4.83797 59.4198 3.82272 57.0275 3.87414L53.9839 3.93956C53.851 3.94241 53.7729 4.02387 53.7761 4.17007L53.9672 13.0616C53.9703 13.2078 54.0518 13.2858 54.1847 13.283L57.5074 13.2115C59.7668 13.163 60.8881 12.1283 60.8524 10.467C60.8313 9.48345 60.1883 8.64627 59.1445 8.33628ZM59.1051 6.50216C59.1234 7.35277 58.4965 7.88482 57.3668 7.9091L55.2004 7.95566L55.1387 5.08486L57.026 5.04429C58.4481 5.01373 59.0856 5.59838 59.1051 6.50216ZM57.4557 12.0425L55.2893 12.0891L55.225 9.09867L57.4446 9.05096C58.8534 9.02068 59.4652 9.64578 59.4817 10.4166C59.5029 11.4002 58.7715 12.0142 57.4557 12.0425Z" fill="#2134B8"/>
<path d="M69.6062 8.41051L68.7347 8.30933C68.5894 8.29247 68.501 8.3625 68.4841 8.50776L68.1361 11.5053C68.0248 12.3489 67.3573 13.1413 66.2877 13.0172C65.3502 12.9083 64.8123 12.1232 64.9411 11.014L65.2753 8.13523C65.2921 7.98998 65.2221 7.90155 65.0901 7.88622L64.2053 7.7835C64.0733 7.76817 63.9848 7.83821 63.968 7.98346L63.6031 11.1263C63.4053 12.8297 64.3843 14.081 65.9821 14.2665C66.9197 14.3753 67.6732 13.9944 68.0972 13.4547L68.054 14.1724C68.0387 14.3045 68.1219 14.3944 68.254 14.4098L68.901 14.4849C69.0463 14.5017 69.1347 14.4317 69.1516 14.2864L69.8046 8.66106C69.8215 8.5158 69.7515 8.42737 69.6062 8.41051Z" fill="#2134B8"/>
<path d="M73.5284 16.0558C75.0377 16.4313 76.1495 15.9271 76.4191 14.8435C76.6952 13.734 76.0529 13.1221 74.8817 12.4883C73.9365 11.9928 73.6138 11.7481 73.7101 11.3611C73.8192 10.9225 74.2673 10.8285 74.822 10.9665C75.4412 11.1206 75.8929 11.3974 76.3286 11.7934C76.4384 11.9029 76.548 11.9028 76.6414 11.8028L77.1116 11.2896C77.2211 11.1798 77.2209 11.0702 77.1209 10.9768C76.6916 10.5549 76.0398 10.1462 75.1497 9.92472C73.7564 9.57807 72.6575 10.0307 72.3911 11.1014C72.1279 12.1593 72.9702 12.8483 74.0606 13.421C74.9446 13.8875 75.2028 14.171 75.1001 14.5838C74.9878 15.0353 74.5269 15.1809 73.869 15.0172C73.1207 14.8311 72.5593 14.4448 72.1816 14.0357C72.0847 13.9294 71.9751 13.9296 71.8688 14.0264L71.3697 14.5461C71.2731 14.659 71.2603 14.7654 71.3732 14.862C71.8994 15.3902 72.5995 15.8247 73.5284 16.0558Z" fill="#2134B8"/>
<path d="M80.802 10.7955C81.3014 10.9781 81.8163 10.77 81.9988 10.2705C82.1814 9.7711 81.9221 9.28001 81.4181 9.10992C80.9266 8.9444 80.4209 9.12754 80.2383 9.62697C80.0558 10.1264 80.315 10.6175 80.802 10.7955ZM77.9012 17.4916L78.7378 17.7974C78.8626 17.8431 78.9649 17.7955 79.0151 17.6582L80.9595 12.3393C81.0097 12.2019 80.9622 12.0996 80.8373 12.054L80.0008 11.7482C79.8759 11.7025 79.7736 11.7501 79.7234 11.8874L77.7666 17.2018C77.7163 17.3391 77.7639 17.4414 77.9012 17.4916Z" fill="#2134B8"/>
<path d="M86.7582 14.5077C85.7355 14.0592 84.8105 14.2487 84.2149 14.7133L84.5307 13.8938C84.5719 13.7667 84.5187 13.6563 84.397 13.6029L83.8856 13.3786C83.7639 13.3253 83.6466 13.3609 83.5879 13.4949L81.3136 18.6813C81.2549 18.8152 81.3081 18.9256 81.4298 18.979L82.2334 19.3314C82.3673 19.3901 82.4724 19.3491 82.5311 19.2152L83.8566 16.2255C84.25 15.5271 85.0846 15.0802 86.0221 15.4913C86.9108 15.881 87.2313 16.8054 86.7828 17.828L85.5869 20.5552C85.5282 20.6891 85.5692 20.7942 85.691 20.8476L86.5067 21.2053C86.6284 21.2587 86.7457 21.223 86.8044 21.0891L88.075 18.1915C88.7691 16.6088 88.2435 15.159 86.7582 14.5077Z" fill="#2134B8"/>
<path d="M94.9637 23.1932C95.9303 21.6339 95.604 19.9145 94.1125 18.99C92.5419 18.0165 90.7175 18.5122 89.772 20.0376C88.8125 21.5856 89.2845 23.4735 90.9003 24.4751C91.8607 25.0704 92.653 25.1548 93.2009 25.1035C93.3404 25.0804 93.4077 24.997 93.4142 24.8603L93.4216 24.1923C93.4351 24.0443 93.3518 23.977 93.201 23.9931C92.7699 24.0073 92.2343 23.9882 91.6129 23.603C90.6412 23.0007 90.3118 21.9676 90.6875 21.0587L94.5405 23.447C94.6535 23.517 94.7633 23.4912 94.8517 23.374L94.9637 23.1932ZM93.5791 19.9263C94.3136 20.3815 94.5676 21.2585 94.1705 22.0758L94.1565 22.0984L91.1961 20.2634C91.8515 19.5592 92.7656 19.422 93.5791 19.9263Z" fill="#2134B8"/>
<path d="M96.067 28.8155C97.2558 29.8185 98.476 29.8565 99.1961 29.003C99.9333 28.1292 99.6269 27.2967 98.8556 26.2112C98.226 25.3495 98.0443 24.9875 98.3015 24.6827C98.593 24.3372 99.0365 24.4506 99.4735 24.8192C99.9612 25.2307 100.244 25.6784 100.461 26.2261C100.511 26.3727 100.609 26.421 100.737 26.3724L101.386 26.1193C101.532 26.0692 101.58 25.9707 101.532 25.8428C101.333 25.2748 100.928 24.6204 100.227 24.0289C99.1299 23.1031 97.9439 23.0243 97.2324 23.8677C96.5295 24.7009 96.9813 25.6908 97.7072 26.6859C98.2946 27.4946 98.4013 27.8629 98.127 28.188C97.827 28.5436 97.3491 28.471 96.8309 28.0338C96.2416 27.5366 95.9082 26.9422 95.7497 26.4085C95.7097 26.2703 95.6113 26.2221 95.4732 26.2621L94.7959 26.5082C94.6594 26.5669 94.601 26.6568 94.6597 26.7933C94.8988 27.4994 95.3354 28.1983 96.067 28.8155Z" fill="#2134B8"/>
<path d="M100.244 34.1272C101.156 35.3872 102.331 35.7184 103.236 35.0637C104.162 34.3935 104.065 33.5117 103.578 32.2722C103.175 31.2841 103.086 30.889 103.409 30.6552C103.775 30.3902 104.179 30.6071 104.514 31.0702C104.888 31.5872 105.055 32.09 105.133 32.6736C105.146 32.8281 105.23 32.8987 105.366 32.8824L106.056 32.7931C106.21 32.7798 106.281 32.6959 106.265 32.56C106.208 31.9607 105.974 31.2281 105.436 30.485C104.594 29.3219 103.462 28.9595 102.568 29.6064C101.685 30.2455 101.885 31.3152 102.349 32.4559C102.725 33.3824 102.739 33.7656 102.395 34.015C102.018 34.2878 101.571 34.102 101.174 33.5527C100.722 32.9281 100.542 32.2709 100.517 31.7147C100.511 31.571 100.427 31.5004 100.284 31.5059L99.567 31.5815C99.4203 31.6055 99.3419 31.6787 99.366 31.8253C99.4278 32.5683 99.683 33.3518 100.244 34.1272Z" fill="#2134B8"/>
</svg>
