<svg width="194" height="214" viewBox="0 0 194 214" fill="none" xmlns="http://www.w3.org/2000/svg">
<path d="M168.667 108.137C168.667 96.1658 163.961 84.6851 155.584 76.2203C147.207 67.7555 135.846 63 124 63C112.154 63 100.793 67.7555 92.4159 76.2203C84.0393 84.6851 79.3333 96.1658 79.3333 108.137C79.3333 160.796 57 175.842 57 175.842H191C191 175.842 168.667 160.796 168.667 108.137Z" stroke="#C4C4C4" stroke-width="4.46" stroke-linecap="round" stroke-linejoin="round"/>
<path d="M134.58 204.053C133.505 206.198 131.962 207.978 130.105 209.216C128.248 210.454 126.143 211.105 124.001 211.105C121.858 211.105 119.753 210.454 117.897 209.216C116.04 207.978 114.497 206.198 113.422 204.053" stroke="#C4C4C4" stroke-width="4.46" stroke-linecap="round" stroke-linejoin="round"/>
<path d="M159.167 64.3369C159.167 47.2737 152.459 30.9093 140.519 18.8438C128.579 6.77833 112.385 0 95.5 0C78.6146 0 62.4207 6.77833 50.4809 18.8438C38.5411 30.9093 31.8333 47.2737 31.8333 64.3369C31.8333 139.397 0 160.842 0 160.842H191C191 160.842 159.167 139.397 159.167 64.3369Z" fill="#345F8B" fill-opacity="0.03"/>
<path d="M110.58 201.052C109.047 204.11 106.848 206.648 104.202 208.412C101.555 210.176 98.5548 211.105 95.5008 211.105C92.4469 211.105 89.4465 210.176 86.8001 208.412C84.1538 206.648 81.9543 204.11 80.4219 201.052" fill="#345F8B" fill-opacity="0.03"/>
</svg>
