<svg width="166" height="166" viewBox="0 0 166 166" fill="none" xmlns="http://www.w3.org/2000/svg">
<path d="M96.8327 13.833H41.4993C37.8305 13.833 34.312 15.2904 31.7177 17.8847C29.1235 20.479 27.666 23.9975 27.666 27.6663V138.333C27.666 142.002 29.1235 145.52 31.7177 148.115C34.312 150.709 37.8305 152.166 41.4993 152.166H124.499C128.168 152.166 131.687 150.709 134.281 148.115C136.875 145.52 138.333 142.002 138.333 138.333V55.333L96.8327 13.833Z" stroke="#C4C4C4" stroke-width="1.64356" stroke-linecap="round" stroke-linejoin="round"/>
<path d="M96.834 13.833V55.333H138.334" stroke="#C4C4C4" stroke-width="1.64356" stroke-linecap="round" stroke-linejoin="round"/>
<path d="M110.667 89.917H55.334" stroke="#C4C4C4" stroke-width="1.64356" stroke-linecap="round" stroke-linejoin="round"/>
<path d="M110.667 117.584H55.334" stroke="#C4C4C4" stroke-width="1.64356" stroke-linecap="round" stroke-linejoin="round"/>
<path d="M69.1673 62.25H62.2506H55.334" stroke="#C4C4C4" stroke-width="1.64356" stroke-linecap="round" stroke-linejoin="round"/>
</svg>
