<svg width="210" height="143" viewBox="0 0 210 143" fill="none" xmlns="http://www.w3.org/2000/svg">
<path d="M31.2951 102.427C34.1544 102.427 37.0565 101.829 38.8063 100.72V94.3606C36.7151 95.769 34.3252 96.4518 31.7645 96.4518C26.1738 96.4518 22.7596 93.1657 22.7596 87.831C22.7596 82.4963 26.1738 79.2102 31.7645 79.2102C34.3252 79.2102 36.7151 79.893 38.8063 81.3014V74.9424C37.0565 73.8328 34.1544 73.2353 31.2951 73.2353C22.2474 73.2353 16.1873 79.2528 16.1873 87.831C16.1873 96.4092 22.2474 102.427 31.2951 102.427ZM48.0446 102.427C50.6053 102.427 52.6111 101.488 53.8914 99.8234L54.6596 101.915H59.0127V90.6477C59.0127 85.3984 56.1106 82.7951 50.3492 82.7951C47.4898 82.7951 45.0572 83.4352 43.2647 84.6302V89.7088C44.9292 88.3858 46.8496 87.703 49.2823 87.703C52.099 87.703 53.0379 88.6419 53.0379 91.0745V91.3732C51.5442 90.8184 50.0931 90.5197 48.5994 90.5197C44.3317 90.5197 41.7284 92.8243 41.7284 96.6226C41.7284 100.207 44.0756 102.427 48.0446 102.427ZM49.709 98.0309C48.2153 98.0309 47.4898 97.3054 47.4898 96.1958C47.4898 95.0435 48.258 94.318 49.9651 94.318C51.032 94.318 52.099 94.6167 53.0379 95.1288V96.4518C52.227 97.5188 51.032 98.0309 49.709 98.0309ZM63.4325 101.915H69.4073V90.5197C70.0902 89.0687 71.0717 88.3431 72.3521 88.3431C73.8458 88.3431 74.6566 89.282 74.6566 91.1172V101.915H80.6315V90.4343C81.3143 89.0687 82.2959 88.3431 83.5762 88.3431C85.1126 88.3431 85.8808 89.282 85.8808 91.1172V101.915H91.8556V90.1783C91.8556 85.313 89.6791 82.7951 85.5821 82.7951C83.0641 82.7951 81.1863 83.6913 79.7353 85.7825C78.7537 83.8193 76.9185 82.7951 74.3152 82.7951C71.8399 82.7951 69.9194 83.734 68.4257 85.8678L67.7856 83.3072H63.4325V101.915ZM96.3991 111.602H102.374V100.25C103.612 101.658 105.319 102.427 107.538 102.427C112.531 102.427 116.116 98.5857 116.116 92.6109C116.116 86.6787 112.617 82.7951 107.41 82.7951C104.807 82.7951 102.843 83.7767 101.392 85.7825L100.752 83.3072H96.3991V111.602ZM106.044 97.0493C104.422 97.0493 103.142 96.3238 102.374 95.1288V90.0502C103.142 88.8553 104.422 88.1724 106.002 88.1724C108.519 88.1724 110.056 89.8368 110.056 92.6109C110.056 95.3422 108.519 97.0493 106.044 97.0493ZM124.814 102.427C127.375 102.427 129.38 101.488 130.661 99.8234L131.429 101.915H135.782V90.6477C135.782 85.3984 132.88 82.7951 127.119 82.7951C124.259 82.7951 121.827 83.4352 120.034 84.6302V89.7088C121.698 88.3858 123.619 87.703 126.052 87.703C128.868 87.703 129.807 88.6419 129.807 91.0745V91.3732C128.313 90.8184 126.862 90.5197 125.369 90.5197C121.101 90.5197 118.498 92.8243 118.498 96.6226C118.498 100.207 120.845 102.427 124.814 102.427ZM126.478 98.0309C124.985 98.0309 124.259 97.3054 124.259 96.1958C124.259 95.0435 125.027 94.318 126.734 94.318C127.801 94.318 128.868 94.6167 129.807 95.1288V96.4518C128.996 97.5188 127.801 98.0309 126.478 98.0309ZM143.189 79.9784C145.238 79.9784 146.689 78.57 146.689 76.6068C146.689 74.601 145.238 73.1927 143.189 73.1927C141.141 73.1927 139.69 74.601 139.69 76.6068C139.69 78.57 141.141 79.9784 143.189 79.9784ZM140.202 101.915H146.177V83.3072H140.202V101.915ZM158.807 112.114C166.148 112.114 169.946 109.554 169.946 104.603C169.946 100.592 167.428 98.4577 162.52 98.4577H158.252C156.545 98.4577 155.948 98.1163 155.948 97.2627C155.948 96.7506 156.161 96.4092 156.588 96.0677C157.399 96.1958 158.252 96.2811 159.191 96.2811C164.825 96.2811 167.94 93.9339 167.94 89.5381C167.94 88.5565 167.769 87.6603 167.471 86.8921C168.025 86.6787 168.666 86.5934 169.391 86.5934C170.117 86.5934 170.629 86.6787 171.056 86.7641V80.8746C170.543 80.7892 170.074 80.7892 169.605 80.7892C167.428 80.7892 165.806 81.7281 164.697 83.9047C163.288 83.1792 161.453 82.7951 159.191 82.7951C153.558 82.7951 150.528 85.1423 150.528 89.5381C150.528 91.928 151.424 93.6778 153.131 94.7874V94.8728C151.467 95.8544 150.698 97.092 150.698 98.8418C150.698 100.421 151.381 101.53 152.747 102.213V102.299C150.826 103.195 149.802 104.646 149.802 106.78C149.802 110.365 152.747 112.114 158.807 112.114ZM159.191 91.8427C157.143 91.8427 156.161 91.1172 156.161 89.5381C156.161 87.9164 157.185 87.2335 159.191 87.2335C161.154 87.2335 162.179 87.9164 162.179 89.5381C162.179 91.1172 161.197 91.8427 159.191 91.8427ZM159.319 107.633C156.588 107.633 155.308 107.036 155.308 105.542C155.308 104.518 155.862 103.92 156.929 103.494H160.77C162.99 103.494 163.886 104.006 163.886 105.243C163.886 106.865 162.435 107.633 159.319 107.633ZM173.835 101.915H179.81V90.6477C180.493 89.154 181.517 88.3431 182.926 88.3431C184.505 88.3431 185.273 89.282 185.273 91.1598V101.915H191.248V90.2209C191.248 85.3557 188.986 82.7951 184.803 82.7951C182.285 82.7951 180.322 83.734 178.871 85.9105L178.188 83.3072H173.835V101.915Z" fill="white"/>
<path d="M102.041 44.4502L104.345 51.539H111.798L105.768 55.9201L108.071 63.0089L102.041 58.6278L96.0111 63.0089L98.3144 55.9201L92.2843 51.539H99.7379L102.041 44.4502Z" fill="white"/>
<path d="M128.03 48.5537L129.412 52.807L133.885 52.807L130.266 55.4357L131.648 59.6889L128.03 57.0603L124.412 59.6889L125.794 55.4357L122.176 52.807L126.648 52.807L128.03 48.5537Z" fill="white"/>
<path d="M74.6837 49.9214L76.0657 54.1747L80.5378 54.1747L76.9198 56.8033L78.3018 61.0566L74.6837 58.4279L71.0657 61.0566L72.4476 56.8033L68.8296 54.1747L73.3017 54.1747L74.6837 49.9214Z" fill="white"/>
<path d="M103.826 131.105C105.073 130.615 105.931 129.511 105.931 127.979C105.931 125.853 104.399 124.259 100.639 124.259H95.632C95.4073 124.259 95.2642 124.402 95.2642 124.627V138.257C95.2642 138.482 95.4073 138.625 95.632 138.625H100.986C104.746 138.625 106.442 137.072 106.442 134.518C106.442 132.924 105.502 131.575 103.826 131.105ZM103.193 128.469C103.193 129.593 102.416 130.247 100.802 130.247H98.0229V126.609H100.598C102.437 126.609 103.193 127.325 103.193 128.469ZM100.965 136.275H98.0229V132.495H100.965C102.845 132.495 103.663 133.251 103.663 134.334C103.663 135.539 102.764 136.275 100.965 136.275ZM117.515 129.225H115.553C115.349 129.225 115.185 129.327 115.104 129.532L112.856 135.56L110.547 129.532C110.485 129.327 110.322 129.225 110.118 129.225H107.931C107.645 129.225 107.522 129.409 107.645 129.654L111.446 138.605L110.036 142.181C109.934 142.446 110.056 142.61 110.342 142.61H112.182C112.386 142.61 112.549 142.508 112.631 142.303L114.307 138.237L117.822 129.654C117.903 129.409 117.801 129.225 117.515 129.225ZM136.452 131.473H134.572C134.326 131.473 134.183 131.595 134.183 131.841V135.723C133.509 136.05 132.61 136.275 131.527 136.275C128.809 136.275 126.602 134.313 126.602 131.452C126.602 128.592 128.707 126.712 131.547 126.712C133.121 126.712 134.224 127.182 134.796 127.488C135.001 127.59 135.185 127.549 135.307 127.345L136.166 125.772C136.288 125.567 136.247 125.383 136.043 125.261C135.348 124.811 133.877 124.076 131.425 124.076C126.888 124.076 123.68 127.304 123.68 131.452C123.68 135.601 126.888 138.809 131.363 138.809C134.265 138.809 135.92 137.808 136.615 137.297C136.779 137.195 136.84 137.031 136.84 136.827V131.841C136.84 131.595 136.697 131.473 136.452 131.473ZM148.228 133.945C148.228 131.125 146.389 129.041 143.549 129.041C140.667 129.041 138.644 131.187 138.644 133.925C138.644 136.684 140.831 138.809 143.814 138.809C145.654 138.809 146.798 138.237 147.431 137.746C147.615 137.603 147.636 137.419 147.513 137.215L146.798 135.948C146.675 135.723 146.491 135.703 146.287 135.846C145.837 136.173 145.163 136.561 144.1 136.561C142.67 136.561 141.628 135.764 141.321 134.661H147.84C148.065 134.661 148.187 134.518 148.208 134.293C148.228 134.17 148.228 134.068 148.228 133.945ZM143.651 131.166C144.714 131.166 145.51 131.882 145.674 132.883L145.694 132.944H141.321C141.607 131.8 142.466 131.166 143.651 131.166ZM159.284 133.945C159.284 131.125 157.445 129.041 154.604 129.041C151.723 129.041 149.7 131.187 149.7 133.925C149.7 136.684 151.886 138.809 154.87 138.809C156.709 138.809 157.853 138.237 158.487 137.746C158.671 137.603 158.691 137.419 158.569 137.215L157.853 135.948C157.731 135.723 157.547 135.703 157.342 135.846C156.893 136.173 156.219 136.561 155.156 136.561C153.726 136.561 152.683 135.764 152.377 134.661H158.895C159.12 134.661 159.243 134.518 159.263 134.293C159.284 134.17 159.284 134.068 159.284 133.945ZM154.706 131.166C155.769 131.166 156.566 131.882 156.729 132.883L156.75 132.944H152.377C152.663 131.8 153.521 131.166 154.706 131.166ZM166.743 129.041C165.026 129.041 163.841 129.838 163.289 130.819L163.208 129.593C163.187 129.368 163.044 129.225 162.819 129.225H161.654C161.409 129.225 161.266 129.368 161.266 129.593V138.257C161.266 138.482 161.409 138.625 161.654 138.625H163.575C163.8 138.625 163.943 138.482 163.943 138.257V133.721C163.943 132.474 164.781 131.452 166.13 131.452C167.356 131.452 168.194 132.372 168.194 133.802V138.257C168.194 138.482 168.337 138.625 168.582 138.625H170.503C170.727 138.625 170.871 138.482 170.871 138.257V133.435C170.871 130.758 169.256 129.041 166.743 129.041ZM182.475 129.225H180.738C180.513 129.225 180.37 129.348 180.35 129.572L180.289 130.145C179.573 129.491 178.593 129.041 177.346 129.041C174.751 129.041 172.769 131.146 172.769 133.925C172.769 136.704 174.69 138.809 177.285 138.809C178.674 138.809 179.696 138.196 180.391 137.358L180.452 138.257C180.473 138.502 180.616 138.625 180.861 138.625H182.475C182.72 138.625 182.863 138.482 182.863 138.257V129.593C182.863 129.368 182.72 129.225 182.475 129.225ZM177.877 136.377C176.508 136.377 175.466 135.315 175.466 133.925C175.466 132.515 176.508 131.473 177.877 131.473C179.349 131.473 180.289 132.495 180.289 133.925C180.309 135.335 179.349 136.377 177.877 136.377Z" fill="white"/>
<path d="M192.262 122.23H186.319C186.194 122.23 186.131 122.303 186.131 122.418V123.307C186.131 123.433 186.194 123.506 186.319 123.506H188.579V129.397C188.579 129.512 188.642 129.585 188.768 129.585H189.824C189.95 129.585 190.023 129.512 190.023 129.397V123.506H192.262C192.388 123.506 192.461 123.433 192.461 123.307V122.418C192.461 122.303 192.388 122.23 192.262 122.23ZM201.041 122.428C201.041 122.303 200.957 122.23 200.821 122.23H200.277C200.172 122.23 200.099 122.272 200.047 122.366L197.284 127.064L194.574 122.366C194.522 122.272 194.449 122.23 194.344 122.23H193.79C193.643 122.23 193.58 122.303 193.58 122.418L193.371 129.397C193.371 129.523 193.423 129.585 193.56 129.585H194.585C194.71 129.585 194.784 129.512 194.784 129.397L194.847 125.17L196.751 128.591C196.803 128.686 196.876 128.727 196.981 128.727H197.577C197.682 128.727 197.766 128.686 197.808 128.591L199.764 125.17L199.827 129.397C199.827 129.512 199.89 129.585 200.026 129.585H201.041C201.166 129.585 201.24 129.533 201.24 129.397L201.041 122.428Z" fill="white"/>
<path d="M19.2851 44.8215C19.7444 43.3019 19.4026 41.5821 18.0566 40.4284C16.0563 38.7139 13.3964 38.8661 10.5122 42.231L6.8428 46.512C6.68256 46.6989 6.69858 46.9072 6.90422 47.0835L19.4106 57.8032C19.6162 57.9795 19.8245 57.9635 19.9847 57.7765L23.9906 53.103C26.7146 49.925 26.6719 47.0995 24.3351 45.0966C22.9518 43.9108 21.0022 43.7639 19.2851 44.8215ZM16.7053 42.6103C17.9017 43.6358 17.8616 45.158 16.4996 46.747L13.8878 49.7941L9.84987 46.3331L12.1252 43.6785C13.8397 41.6782 15.4341 41.5207 16.7053 42.6103ZM22.3135 51.7303L19.7017 54.7774L15.4955 51.1722L18.1714 48.0502C19.8699 46.0687 21.4883 45.9966 22.5725 46.9259C23.9559 48.1117 23.8998 49.8796 22.3135 51.7303Z" fill="white"/>
<path d="M32.8853 30.6054L31.8117 31.5092C31.6233 31.6678 31.6054 31.8759 31.7451 32.0802L32.4022 32.9753C31.1087 32.7769 29.597 33.0839 28.2031 34.2573C25.8298 36.2552 25.62 39.7145 27.7924 42.2951C29.9647 44.8756 33.3903 45.2747 35.7637 43.2768C37.2329 42.04 37.7139 40.5086 37.6279 39.0683L38.5882 40.0944C38.7468 40.2828 38.9738 40.2848 39.1433 40.1421L40.1793 39.27C40.3865 39.0955 40.4043 38.8874 40.2299 38.6802L33.4751 30.6561C33.3007 30.4489 33.0925 30.431 32.8853 30.6054ZM34.6974 41.2455C33.2094 42.4982 31.0238 42.3105 29.676 40.7094C28.3282 39.1084 28.5159 36.9228 30.0039 35.6701C31.6238 34.3064 33.6964 34.5893 35.0631 36.1745C36.4109 37.7756 36.3173 39.8819 34.6974 41.2455Z" fill="white"/>
<path d="M49.5265 35.0156C51.1872 34.051 51.8484 32.9836 52.1739 32.3674C52.2913 32.1284 52.2473 31.9546 52.0172 31.8035L50.8488 31.1155C50.6647 30.9946 50.4909 31.0386 50.3522 31.29C50.002 31.8636 49.5082 32.4351 48.5502 32.9916C46.6127 34.117 44.471 33.5671 43.4322 31.7787C42.3687 29.9477 42.9522 27.815 44.9748 26.6401C45.8264 26.1455 46.6101 25.975 47.2729 25.9887C47.5264 25.9838 47.7056 25.8512 47.7008 25.5978L47.6978 24.3182C47.7019 24.0311 47.5604 23.8855 47.2822 23.8477C46.3749 23.8053 45.1695 23.936 43.6153 24.8387C40.6133 26.5824 39.5787 30.1446 41.2606 33.0401C42.9177 35.8931 46.3755 36.8459 49.5265 35.0156Z" fill="white"/>
<path d="M65.4908 27.8204L58.3027 24.8379L61.1963 18.405C61.3304 18.0837 61.1686 17.884 60.8269 18.0244L58.8228 18.8479C58.6406 18.9227 58.5093 19.0565 58.4516 19.24L55.8007 25.227L51.777 15.4342C51.6741 15.1836 51.4813 15.1031 51.2308 15.2061L49.7277 15.8237C49.4999 15.9172 49.3967 16.1194 49.4996 16.3699L55.8626 31.8563C55.9656 32.1068 56.1811 32.178 56.4089 32.0844L57.9119 31.4668C58.1625 31.3639 58.243 31.1711 58.14 30.9206L56.3902 26.6618L62.8019 29.2447C62.9946 29.3252 63.1728 29.3052 63.355 29.2304L65.4957 28.3508C65.8146 28.2198 65.8442 27.968 65.4908 27.8204Z" fill="white"/>
<path d="M76.5384 8.29688L63.5078 11.7013C63.2696 11.7636 63.1402 11.9501 63.2086 12.2121L63.5696 13.5938C63.6318 13.832 63.8422 13.9552 64.0804 13.8929L69.3927 12.505L73.0896 26.6553C73.1581 26.9173 73.3384 27.0229 73.6004 26.9544L75.268 26.5188C75.5062 26.4565 75.6356 26.27 75.5671 26.008L71.8702 11.8577L77.111 10.4885C77.3492 10.4263 77.4486 10.2222 77.3863 9.98394L77.0254 8.60227C76.9569 8.34023 76.7766 8.23464 76.5384 8.29688Z" fill="white"/>
<path d="M89.1869 25.0469C92.4594 24.6268 94.8259 21.7909 94.3995 18.4696C93.97 15.1239 90.9638 12.9779 87.6914 13.398C84.3946 13.8213 82.028 16.6571 82.4576 20.0028C82.884 23.3241 85.8901 25.4701 89.1869 25.0469ZM88.9016 22.8246C86.9479 23.0754 85.1812 21.6887 84.9241 19.6861C84.6607 17.6348 86.0199 15.8467 87.9736 15.5959C89.9029 15.3482 91.6696 16.7349 91.933 18.7863C92.1901 20.7888 90.8309 22.5769 88.9016 22.8246Z" fill="white"/>
<path d="M109.539 15.3619C110.978 14.6907 112.031 13.2889 111.993 11.5165C111.937 8.88265 110.049 7.00229 105.618 7.09752L99.9814 7.21869C99.7353 7.22398 99.5907 7.37485 99.5966 7.64562L99.9505 24.1137C99.9563 24.3844 100.107 24.529 100.353 24.5237L106.507 24.3914C110.692 24.3014 112.769 22.3851 112.703 19.3081C112.664 17.4866 111.473 15.936 109.539 15.3619ZM109.466 11.9649C109.5 13.5403 108.339 14.5257 106.247 14.5707L102.235 14.6569L102.12 9.33991L105.616 9.26478C108.25 9.20817 109.43 10.291 109.466 11.9649ZM106.412 22.2262L102.399 22.3125L102.28 16.7739L106.391 16.6856C109 16.6295 110.133 17.7872 110.164 19.2149C110.203 21.0365 108.849 22.1739 106.412 22.2262Z" fill="white"/>
<path d="M128.926 15.5005L127.312 15.3131C127.043 15.2819 126.879 15.4116 126.848 15.6806L126.203 21.2324C125.997 22.7948 124.761 24.2625 122.78 24.0325C121.043 23.8309 120.047 22.3768 120.285 20.3223L120.904 14.9907C120.936 14.7216 120.806 14.5578 120.561 14.5295L118.923 14.3392C118.678 14.3108 118.514 14.4405 118.483 14.7096L117.807 20.5304C117.441 23.6854 119.254 26.0028 122.214 26.3463C123.95 26.5479 125.346 25.8424 126.131 24.8429L126.051 26.1722C126.023 26.4167 126.177 26.5833 126.421 26.6117L127.62 26.7509C127.889 26.7821 128.052 26.6524 128.084 26.3834L129.293 15.9645C129.325 15.6955 129.195 15.5317 128.926 15.5005Z" fill="white"/>
<path d="M136.201 29.6616C138.996 30.3571 141.055 29.4232 141.555 27.4162C142.066 25.3614 140.876 24.2281 138.707 23.0541C136.957 22.1365 136.359 21.6833 136.537 20.9665C136.739 20.1542 137.569 19.98 138.597 20.2357C139.743 20.521 140.58 21.0336 141.387 21.7672C141.59 21.97 141.793 21.9698 141.966 21.7845L142.837 20.834C143.04 20.6308 143.04 20.4277 142.854 20.2548C142.059 19.4734 140.852 18.7163 139.203 18.3062C136.623 17.6641 134.588 18.5024 134.094 20.4856C133.607 22.4448 135.167 23.721 137.186 24.7817C138.824 25.6457 139.302 26.1707 139.112 26.9352C138.904 27.7715 138.05 28.0412 136.831 27.738C135.446 27.3932 134.406 26.6778 133.706 25.9202C133.527 25.7233 133.324 25.7236 133.127 25.9029L132.202 26.8654C132.024 27.0746 132 27.2717 132.209 27.4506C133.184 28.4289 134.48 29.2336 136.201 29.6616Z" fill="white"/>
<path d="M149.679 19.9215C150.604 20.2596 151.558 19.8742 151.896 18.9492C152.234 18.0242 151.754 17.1147 150.821 16.7996C149.91 16.4931 148.974 16.8323 148.636 17.7573C148.297 18.6823 148.778 19.5918 149.679 19.9215ZM144.307 32.3234L145.856 32.8898C146.088 32.9744 146.277 32.8863 146.37 32.6319L149.971 22.7807C150.064 22.5264 149.976 22.3369 149.745 22.2524L148.196 21.686C147.964 21.6014 147.775 21.6895 147.682 21.9438L144.058 31.7866C143.965 32.041 144.053 32.2304 144.307 32.3234Z" fill="white"/>
<path d="M160.716 26.7985C158.821 25.968 157.108 26.319 156.005 27.1794L156.59 25.6616C156.666 25.4262 156.568 25.2217 156.342 25.1228L155.395 24.7075C155.17 24.6086 154.953 24.6747 154.844 24.9227L150.632 34.5286C150.523 34.7766 150.621 34.9811 150.847 35.08L152.335 35.7326C152.583 35.8414 152.778 35.7654 152.886 35.5173L155.341 29.9802C156.07 28.6866 157.616 27.8589 159.352 28.6203C160.998 29.3421 161.592 31.0542 160.761 32.9483L158.546 37.9992C158.438 38.2472 158.513 38.4419 158.739 38.5407L160.25 39.2032C160.475 39.3021 160.692 39.236 160.801 38.988L163.154 33.6214C164.44 30.69 163.467 28.0049 160.716 26.7985Z" fill="white"/>
<path d="M175.924 42.8897C177.714 40.0018 177.11 36.8173 174.348 35.105C171.439 33.3019 168.06 34.2201 166.308 37.0453C164.531 39.9124 165.406 43.409 168.398 45.264C170.177 46.3666 171.644 46.5229 172.659 46.4278C172.917 46.3851 173.042 46.2307 173.054 45.9775L173.068 44.7403C173.093 44.4662 172.939 44.3415 172.659 44.3712C171.861 44.3977 170.869 44.3622 169.718 43.6488C167.918 42.5332 167.308 40.6198 168.004 38.9364L175.14 43.3598C175.35 43.4895 175.553 43.4418 175.717 43.2246L175.924 42.8897ZM173.36 36.8391C174.72 37.6822 175.191 39.3065 174.455 40.8203L174.429 40.8622L168.946 37.4635C170.16 36.1593 171.853 35.9051 173.36 36.8391Z" fill="white"/>
<path d="M177.976 53.3103C180.178 55.168 182.438 55.2384 183.771 53.6577C185.137 52.0393 184.569 50.4974 183.141 48.4869C181.974 46.8909 181.638 46.2205 182.114 45.6559C182.654 45.0161 183.476 45.226 184.285 45.9087C185.188 46.6708 185.713 47.5 186.113 48.5144C186.206 48.7861 186.389 48.8755 186.626 48.7855L187.826 48.3168C188.098 48.2238 188.187 48.0415 188.097 47.8045C187.729 46.7525 186.979 45.5405 185.681 44.445C183.649 42.7303 181.452 42.5845 180.134 44.1464C178.832 45.6896 179.669 47.5231 181.014 49.3661C182.102 50.8638 182.299 51.546 181.791 52.1482C181.235 52.8068 180.35 52.6722 179.391 51.8625C178.299 50.9416 177.682 49.8408 177.388 48.8522C177.314 48.5964 177.132 48.507 176.876 48.5811L175.622 49.0369C175.369 49.1457 175.261 49.3122 175.369 49.565C175.812 50.8729 176.621 52.1672 177.976 53.3103Z" fill="white"/>
<path d="M185.724 63.1616C187.413 65.4953 189.59 66.1087 191.265 64.8962C192.98 63.6548 192.802 62.0216 191.9 59.7259C191.153 57.8958 190.988 57.1641 191.587 56.7311C192.265 56.2403 193.012 56.6421 193.632 57.4998C194.325 58.4572 194.634 59.3884 194.778 60.4695C194.803 60.7555 194.958 60.8862 195.21 60.8561L196.488 60.6907C196.775 60.6661 196.905 60.5107 196.875 60.259C196.771 59.1491 196.336 57.7922 195.34 56.4159C193.781 54.2617 191.685 53.5906 190.029 54.7886C188.393 55.9723 188.763 57.9535 189.624 60.0663C190.318 61.7822 190.346 62.4919 189.707 62.9538C189.009 63.459 188.183 63.1149 187.447 62.0976C186.609 60.9407 186.276 59.7235 186.229 58.6933C186.219 58.4272 186.064 58.2965 185.798 58.3067L184.47 58.4466C184.199 58.4912 184.054 58.6267 184.098 58.8983C184.213 60.2743 184.685 61.7254 185.724 63.1616Z" fill="white"/>
</svg>
