<svg width="124" height="75" viewBox="0 0 124 75" fill="none" xmlns="http://www.w3.org/2000/svg">
<path d="M60.7769 68.392C61.4821 68.1146 61.9676 67.4904 61.9676 66.6234C61.9676 65.4213 61.1006 64.5196 58.9737 64.5196H56.1416C56.0145 64.5196 55.9336 64.6005 55.9336 64.7277V72.4378C55.9336 72.565 56.0145 72.6459 56.1416 72.6459H59.1702C61.2971 72.6459 62.2566 71.7674 62.2566 70.3225C62.2566 69.4208 61.7248 68.6579 60.7769 68.392ZM60.4186 66.9009C60.4186 67.5366 59.9793 67.9065 59.0662 67.9065H57.4941V65.849H58.9506C59.9909 65.849 60.4186 66.2535 60.4186 66.9009ZM59.1586 71.3166H57.4941V69.1781H59.1586C60.2221 69.1781 60.6845 69.6058 60.6845 70.2184C60.6845 70.9004 60.1759 71.3166 59.1586 71.3166ZM68.5203 67.3286H67.4106C67.295 67.3286 67.2025 67.3864 67.1563 67.502L65.8848 70.912L64.5785 67.502C64.5439 67.3864 64.4514 67.3286 64.3358 67.3286H63.0989C62.9371 67.3286 62.8678 67.4326 62.9371 67.5713L65.0872 72.6343L64.2896 74.6572C64.2318 74.8075 64.3011 74.9 64.463 74.9H65.5033C65.6189 74.9 65.7114 74.8422 65.7576 74.7266L66.7055 72.4263L68.6937 67.5713C68.7399 67.4326 68.6821 67.3286 68.5203 67.3286ZM79.2323 68.6001H78.1689C78.0302 68.6001 77.9492 68.6695 77.9492 68.8082V71.0045C77.5678 71.1894 77.0592 71.3166 76.4465 71.3166C74.9091 71.3166 73.6607 70.2069 73.6607 68.5885C73.6607 66.9702 74.8513 65.9068 76.4581 65.9068C77.3482 65.9068 77.9724 66.1726 78.296 66.346C78.4116 66.4038 78.5157 66.3807 78.585 66.2651L79.0705 65.375C79.1399 65.2594 79.1167 65.1554 79.0011 65.086C78.6081 64.8317 77.7759 64.4156 76.3887 64.4156C73.8225 64.4156 72.0077 66.242 72.0077 68.5885C72.0077 70.9351 73.8225 72.7499 76.354 72.7499C77.9955 72.7499 78.9318 72.1835 79.3248 71.8945C79.4173 71.8367 79.452 71.7443 79.452 71.6287V68.8082C79.452 68.6695 79.371 68.6001 79.2323 68.6001ZM85.8941 69.9988C85.8941 68.4036 84.8537 67.2245 83.247 67.2245C81.6171 67.2245 80.4727 68.4383 80.4727 69.9872C80.4727 71.5477 81.7096 72.7499 83.3972 72.7499C84.4376 72.7499 85.0849 72.4263 85.4433 72.1488C85.5473 72.0679 85.5588 71.9639 85.4895 71.8483L85.0849 71.1316C85.0156 71.0045 84.9115 70.9929 84.7959 71.0738C84.5416 71.2588 84.1602 71.4784 83.5591 71.4784C82.7499 71.4784 82.1604 71.0276 81.987 70.4034H85.6744C85.8016 70.4034 85.871 70.3225 85.8825 70.1953C85.8941 70.1259 85.8941 70.0681 85.8941 69.9988ZM83.3048 68.4267C83.9059 68.4267 84.3567 68.8313 84.4491 69.3977L84.4607 69.4324H81.987C82.1488 68.7851 82.6343 68.4267 83.3048 68.4267ZM92.1479 69.9988C92.1479 68.4036 91.1075 67.2245 89.5008 67.2245C87.8709 67.2245 86.7265 68.4383 86.7265 69.9872C86.7265 71.5477 87.9634 72.7499 89.6511 72.7499C90.6914 72.7499 91.3387 72.4263 91.6971 72.1488C91.8011 72.0679 91.8127 71.9639 91.7433 71.8483L91.3387 71.1316C91.2694 71.0045 91.1653 70.9929 91.0497 71.0738C90.7954 71.2588 90.414 71.4784 89.8129 71.4784C89.0037 71.4784 88.4142 71.0276 88.2408 70.4034H91.9283C92.0554 70.4034 92.1248 70.3225 92.1363 70.1953C92.1479 70.1259 92.1479 70.0681 92.1479 69.9988ZM89.5586 68.4267C90.1597 68.4267 90.6105 68.8313 90.703 69.3977L90.7145 69.4324H88.2408C88.4026 68.7851 88.8881 68.4267 89.5586 68.4267ZM96.3672 67.2245C95.3963 67.2245 94.7258 67.6753 94.4137 68.2302L94.3675 67.5366C94.3559 67.4095 94.275 67.3286 94.1478 67.3286H93.489C93.3502 67.3286 93.2693 67.4095 93.2693 67.5366V72.4378C93.2693 72.565 93.3502 72.6459 93.489 72.6459H94.5755C94.7027 72.6459 94.7836 72.565 94.7836 72.4378V69.8716C94.7836 69.1665 95.2575 68.5885 96.0205 68.5885C96.714 68.5885 97.188 69.1087 97.188 69.9179V72.4378C97.188 72.565 97.2689 72.6459 97.4076 72.6459H98.4942C98.6213 72.6459 98.7022 72.565 98.7022 72.4378V69.7098C98.7022 68.1955 97.789 67.2245 96.3672 67.2245ZM105.267 67.3286H104.284C104.157 67.3286 104.076 67.3979 104.065 67.5251L104.03 67.8487C103.625 67.4788 103.07 67.2245 102.365 67.2245C100.897 67.2245 99.776 68.4152 99.776 69.9872C99.776 71.5593 100.863 72.7499 102.331 72.7499C103.117 72.7499 103.695 72.4031 104.088 71.9292L104.122 72.4378C104.134 72.5765 104.215 72.6459 104.354 72.6459H105.267C105.405 72.6459 105.486 72.565 105.486 72.4378V67.5366C105.486 67.4095 105.405 67.3286 105.267 67.3286ZM102.666 71.3744C101.891 71.3744 101.302 70.7733 101.302 69.9872C101.302 69.1896 101.891 68.6001 102.666 68.6001C103.498 68.6001 104.03 69.1781 104.03 69.9872C104.041 70.7848 103.498 71.3744 102.666 71.3744Z" fill="#5F5E5E"/>
<path d="M110.995 64.8041H107.98C107.916 64.8041 107.885 64.8412 107.885 64.8996V65.3508C107.885 65.4145 107.916 65.4517 107.98 65.4517H109.127V68.4402C109.127 68.4986 109.159 68.5357 109.222 68.5357H109.758C109.822 68.5357 109.859 68.4986 109.859 68.4402V65.4517H110.995C111.059 65.4517 111.096 65.4145 111.096 65.3508V64.8996C111.096 64.8412 111.059 64.8041 110.995 64.8041ZM115.449 64.9049C115.449 64.8412 115.406 64.8041 115.337 64.8041H115.061C115.008 64.8041 114.971 64.8253 114.944 64.8731L113.543 67.2565L112.168 64.8731C112.142 64.8253 112.104 64.8041 112.051 64.8041H111.77C111.696 64.8041 111.664 64.8412 111.664 64.8996L111.558 68.4402C111.558 68.5039 111.584 68.5357 111.653 68.5357H112.173C112.237 68.5357 112.274 68.4986 112.274 68.4402L112.306 66.2957L113.272 68.0315C113.299 68.0792 113.336 68.1005 113.389 68.1005H113.692C113.745 68.1005 113.787 68.0792 113.808 68.0315L114.801 66.2957L114.833 68.4402C114.833 68.4986 114.865 68.5357 114.934 68.5357H115.449C115.512 68.5357 115.549 68.5092 115.549 68.4402L115.449 64.9049Z" fill="#5F5E5E"/>
<path d="M3.40916 30H12.6308C17.2417 30 19.5626 28.0814 19.5626 24.4299C19.5626 21.6757 18.2319 19.9428 15.5088 19.2929V19.2311C17.5821 18.5812 18.6033 17.0958 18.6033 14.7749C18.6033 11.3091 16.3443 9.57613 11.8882 9.57613H3.40916V30ZM5.20398 18.674V11.2162H11.7644C15.2921 11.2162 16.8085 12.3303 16.8085 14.9297C16.8085 17.4981 15.2921 18.674 11.981 18.674H5.20398ZM5.20398 28.3599V20.3141H12.1357C16.0348 20.3141 17.7368 21.5519 17.7368 24.337C17.7368 27.0911 16.0967 28.3599 12.4452 28.3599H5.20398ZM27.1691 30.3713C29.2733 30.3713 31.0372 29.5358 32.306 27.8957L32.5535 30H33.9151V21.8614C33.9151 18.2717 31.9965 16.415 28.3759 16.415C26.4264 16.415 24.7244 16.9411 23.5794 17.9623V19.7571C24.7244 18.5812 26.3335 17.9623 28.1593 17.9623C30.8825 17.9623 32.1822 19.2929 32.1822 22.078V23.0064C30.7278 22.2946 29.1186 21.9542 27.6332 21.9542C24.3531 21.9542 22.4344 23.5634 22.4344 26.2247C22.4344 28.7931 24.2293 30.3713 27.1691 30.3713ZM27.4476 28.8241C25.3433 28.8241 24.1674 27.8338 24.1674 26.1628C24.1674 24.3989 25.4361 23.4706 27.8499 23.4706C29.3662 23.4706 30.9134 23.8419 32.1822 24.4917V26.07C30.9444 27.9267 29.459 28.8241 27.4476 28.8241ZM44.305 30.3713C45.7285 30.3713 47.152 30.0309 48.1732 29.2883V27.5244C47.2448 28.329 45.8832 28.7622 44.4288 28.7622C41.1795 28.7622 39.0134 26.596 39.0134 23.3777C39.0134 20.1904 41.2105 18.0242 44.4288 18.0242C45.9142 18.0242 47.2448 18.4574 48.1732 19.262V17.4672C47.152 16.7554 45.7285 16.415 44.305 16.415C40.1583 16.415 37.2495 19.3239 37.2495 23.3777C37.2495 27.4315 40.1583 30.3713 44.305 30.3713ZM51.507 30H53.24V23.5015L60.017 30H62.4616L55.1276 22.9754L62.3069 16.7864H59.8622L53.24 22.4803V8.02887H51.507V30Z" fill="#2134B8"/>
<path d="M2.50657 56.9479H12.3162C16.7414 56.9479 19.1551 54.9674 19.1551 51.223C19.1551 48.5927 17.9482 46.8288 15.5655 46.1171V46.0552C17.2984 45.3125 18.1339 43.92 18.1339 41.7847C18.1339 38.3189 15.844 36.5241 11.3879 36.5241H2.50657V56.9479ZM6.03432 45.0031V39.6805H11.1403C13.585 39.6805 14.5752 40.485 14.5752 42.3418C14.5752 44.1985 13.585 45.0031 11.1712 45.0031H6.03432ZM6.03432 53.7915V48.1285H11.5116C14.3895 48.1285 15.5345 48.964 15.5345 50.9755C15.5345 52.925 14.4514 53.7915 11.8211 53.7915H6.03432ZM26.7437 57.3193C28.6623 57.3193 30.1477 56.5766 31.2927 54.9674L31.695 56.9479H34.1706V43.5486H30.8285V51.9348C30.1477 53.3892 29.0956 54.1938 27.6721 54.1938C26.1867 54.1938 25.444 53.3273 25.444 51.5016V43.5486H22.1019V51.9348C22.1019 55.4625 23.742 57.3193 26.7437 57.3193ZM42.2393 57.3193C46.1694 57.3193 48.1498 55.8339 48.1498 52.956C48.1498 50.6041 46.8192 49.3973 44.2198 48.9022L42.5178 48.5927C40.9396 48.3142 40.3826 48.0047 40.3826 47.293C40.3826 46.4265 41.1872 45.9314 42.8273 45.9314C44.5293 45.9314 46.1075 46.4265 47.3143 47.293V44.1985C46.2931 43.5486 44.6221 43.1773 42.7963 43.1773C39.1757 43.1773 37.1643 44.7245 37.1643 47.5406C37.1643 49.6139 38.3093 50.9445 41.0015 51.4397L42.7035 51.7491C44.2817 52.0276 44.9315 52.368 44.9315 53.1417C44.9315 54.101 44.0341 54.5651 42.2084 54.5651C40.166 54.5651 38.3711 54.0081 37.1024 52.956V56.0815C38.2474 56.8551 40.135 57.3193 42.2393 57.3193ZM52.6381 40.6707C53.845 40.6707 54.7115 39.8043 54.7115 38.6283C54.7115 37.4215 53.845 36.555 52.6381 36.555C51.4003 36.555 50.5338 37.4215 50.5338 38.6283C50.5338 39.8043 51.4003 40.6707 52.6381 40.6707ZM50.9671 56.9479H54.3092V43.5486H50.9671V56.9479ZM58.2803 56.9479H61.6224V48.5927C62.3341 47.1383 63.3553 46.3028 64.7788 46.3028C66.2642 46.3028 67.0069 47.2002 67.0069 48.995V56.9479H70.349V48.5618C70.349 45.034 68.7089 43.1773 65.7072 43.1773C63.7886 43.1773 62.3032 43.92 61.1582 45.5601L60.7559 43.5486H58.2803V56.9479ZM80.9861 57.3193C82.9357 57.3193 84.5139 56.8551 85.8755 55.9577V52.8322C84.5449 53.9462 83.0595 54.4723 81.2956 54.4723C78.6962 54.4723 77.087 53.3583 76.6848 51.3468H86.4635C86.5563 50.666 86.6182 50.0781 86.6182 49.4592C86.6182 45.6529 84.0807 43.1773 80.1197 43.1773C75.9111 43.1773 73.1879 45.9314 73.1879 50.1709C73.1879 54.5961 76.1896 57.3193 80.9861 57.3193ZM76.6848 48.9022C77.0561 47.0454 78.263 46.0242 80.1197 46.0242C82.0073 46.0242 83.2142 47.0454 83.4927 48.9022H76.6848ZM93.9759 57.3193C97.9059 57.3193 99.8864 55.8339 99.8864 52.956C99.8864 50.6041 98.5558 49.3973 95.9564 48.9022L94.2544 48.5927C92.6762 48.3142 92.1192 48.0047 92.1192 47.293C92.1192 46.4265 92.9238 45.9314 94.5639 45.9314C96.2658 45.9314 97.8441 46.4265 99.0509 47.293V44.1985C98.0297 43.5486 96.3587 43.1773 94.5329 43.1773C90.9123 43.1773 88.9009 44.7245 88.9009 47.5406C88.9009 49.6139 90.0459 50.9445 92.7381 51.4397L94.4401 51.7491C96.0183 52.0276 96.6681 52.368 96.6681 53.1417C96.6681 54.101 95.7707 54.5651 93.945 54.5651C91.9026 54.5651 90.1077 54.0081 88.839 52.956V56.0815C89.984 56.8551 91.8716 57.3193 93.9759 57.3193ZM106.91 57.3193C110.84 57.3193 112.821 55.8339 112.821 52.956C112.821 50.6041 111.49 49.3973 108.891 48.9022L107.189 48.5927C105.61 48.3142 105.053 48.0047 105.053 47.293C105.053 46.4265 105.858 45.9314 107.498 45.9314C109.2 45.9314 110.778 46.4265 111.985 47.293V44.1985C110.964 43.5486 109.293 43.1773 107.467 43.1773C103.846 43.1773 101.835 44.7245 101.835 47.5406C101.835 49.6139 102.98 50.9445 105.672 51.4397L107.374 51.7491C108.952 52.0276 109.602 52.368 109.602 53.1417C109.602 54.101 108.705 54.5651 106.879 54.5651C104.837 54.5651 103.042 54.0081 101.773 52.956V56.0815C102.918 56.8551 104.806 57.3193 106.91 57.3193Z" fill="#2134B8"/>
<path d="M78.2254 30.787C79.608 30.787 80.5166 30.2932 80.7339 30.1154C80.9117 29.9969 80.9314 29.8389 80.8524 29.6611L80.5166 28.8316C80.4376 28.6143 80.2796 28.5748 80.0821 28.6933C79.7858 28.8513 79.3908 29.0291 78.7785 29.0291C77.8106 29.0291 77.1983 28.5353 77.3958 27.1526L77.9489 23.1627H81.0302C81.2277 23.1627 81.366 23.064 81.3857 22.8467L81.524 21.8788C81.5635 21.6418 81.445 21.5233 81.2277 21.5233H78.1859L78.5809 18.758C78.6007 18.521 78.4822 18.4025 78.2649 18.4025H77.0403C76.8428 18.4025 76.7045 18.5013 76.6847 18.7185L76.2897 21.5233H74.7886C74.591 21.5233 74.4528 21.6221 74.433 21.8196L74.275 22.8072C74.2355 23.0442 74.3738 23.1627 74.591 23.1627H75.9934L75.3811 27.4489C75.0848 29.6414 76.2304 30.787 78.2254 30.787ZM86.3319 30.787C89.1564 30.787 91.4279 28.6143 91.4279 25.5132C91.4279 23.0245 89.7095 21.3653 87.2207 21.3653C84.3765 21.3653 82.1247 23.5183 82.1247 26.6391C82.1247 29.1081 83.8629 30.787 86.3319 30.787ZM86.5294 28.9896C85.1468 28.9896 84.1197 28.002 84.1197 26.4416C84.1197 24.6244 85.3048 23.143 87.043 23.143C88.3861 23.143 89.433 24.1503 89.433 25.7107C89.433 27.5279 88.2479 28.9896 86.5294 28.9896Z" fill="#FF751A"/>
<circle cx="81.6797" cy="25.2005" r="13.5242" stroke="#FF6600" stroke-width="1.74848"/>
<circle cx="81.6797" cy="25.2005" r="13.5242" stroke="#FFC6A0" stroke-width="1.74848"/>
</svg>
